<?xml version="1.0" encoding="UTF-8"?>
<svg id="Layer_1" xmlns="http://www.w3.org/2000/svg" version="1.1" viewBox="0 0 1188.8 225.5">
  <!-- Generator: Adobe Illustrator 29.8.1, SVG Export Plug-In . SVG Version: 2.1.1 Build 2)  -->
  <path d="M156,72.2c-19.9-22.5-39.4-44.8-57.3-66.6-2.8-2.9-6.7-4.5-10.9-4.3-16.7.6-33.5,1.3-50.2,2.2-15.7.9-30.5,14.6-32.2,30.3C-.3,85.9-.3,138,5.4,190c1.8,15.7,16.6,29.4,32.2,30.3,22.4,1.2,44.7,2.1,67.1,2.7,4,.1,7.7-1.4,10.6-4,13.5-12.7,32-24.3,52.4-24.3s38.9,11.6,52.4,24.3c2.9,2.7,6.6,4.1,10.6,4,22.4-.6,44.7-1.5,67.1-2.7,15.7-.9,30.5-14.6,32.2-30.3,5.7-52.1,5.7-104.2,0-156.2-1.8-15.7-16.6-29.4-32.2-30.3-16.7-.9-33.5-1.7-50.2-2.2-4.2,0-8,1.4-10.9,4.3-17.9,21.8-37.4,44.1-57.3,66.6-6.5,6.3-16.8,6.3-23.3,0h-.1Z"/>
  <path d="M564.4,48.1c-8.7,0-16.8,2-24.2,5.9-7.3,3.9-13.2,9.4-17.6,16.3l-1.9,3-1.6-3.2c-3.7-7.3-8.9-12.9-15.5-16.6-6.7-3.7-14.8-5.6-24.1-5.6s-15.1,1.7-21.4,5c-6.3,3.3-11.5,7.9-15.3,13.6l-3.7,5.5v-21h-23.8v121.2h23.8v-62.6c0-13.2,3.1-23.6,9.3-30.8,6.3-7.3,14.3-11.1,24-11.1s17.2,3.3,22.3,9.7c5,6.3,7.5,15.7,7.5,27.9v66.9h23.8v-62.6c0-13.2,3.1-23.6,9.2-30.8,6.2-7.3,14.3-11.1,24.1-11.1s17.1,3.3,22.2,9.7c4.9,6.3,7.4,15.7,7.4,27.9v66.9h23.5v-69.7c0-18.1-4.3-31.8-12.7-40.9-8.4-9-20.3-13.6-35.3-13.6h0Z"/>
  <path d="M749.1,151.3c-2.4-1-4-3.3-4.9-6.8-.8-3.1-1.2-7.8-1.2-14.4v-32.8c0-15.3-4.8-27.5-14.1-36.1-9.4-8.7-23.1-13.1-40.7-13.1s-17,1.5-24.5,4.4c-7.4,2.9-13.6,7.2-18.5,12.9-4.4,5.1-7.3,11.6-8.4,19.3h22.9c1.6-6.5,5.1-11.1,10.2-13.9,5.3-2.8,11.5-4.3,18.4-4.3s16.8,2.5,22.4,7.6c5.7,5.1,8.6,12.9,8.6,23.2v8.6l-2.6-.9c-3.4-1.1-7.9-2.3-13.4-3.3-5.4-1.1-11.6-1.6-18.5-1.6-15.1,0-27.5,3.5-36.7,10.5-9,6.8-13.6,16.6-13.6,29.2s1.6,12.3,4.9,17.6c3.2,5.4,8.1,9.7,14.6,13s14.6,5,24,5,17.6-2,24.2-6c6.6-4,11.9-9.1,15.8-15l2.4-3.7,1.2,4.2c2,6.9,5.6,11.6,10.6,13.9,5.4,2.4,12.2,3.6,20.3,3.6h4.1v-19.7c-3,0-5.4-.5-7.2-1.3h-.3ZM717.9,122.3c-.7,6.1-2.5,11.9-5.4,17.3-2.9,5.4-6.8,9.8-11.6,13.1-4.9,3.3-10.8,5-17.5,5s-13.8-1.9-18.2-5.5c-4.5-3.7-6.8-8.6-6.8-14.4s2.5-12.1,7.6-16.2c4.9-4,12.1-6,21.5-6s10.6.5,15.8,1.6c5.1,1,9.5,2,13.3,3.1l1.7.5-.2,1.7-.2-.2Z"/>
  <path d="M817.5,55.2c-4.7,3.4-8.6,8.2-11.5,14.3l-3.8,8v-26.3h-23.8v121.2h23.8v-55.1c0-10.3,1.1-18.9,3.3-25.6,2.2-6.9,5.5-12.1,9.9-15.5s9.7-5.1,15.9-5.1h18.2v-21h-15.4c-6.3,0-11.8,1.7-16.5,5.1h-.1Z"/>
  <path d="M896.9,18.5h-24.8v119.7c0,9.6,1.3,17.1,3.9,22,2.5,4.8,6.3,8.2,11.3,9.9,5.2,1.8,11.7,2.7,19.2,2.7h24v-20.7h-14.9c-4.8,0-8.6-.4-11.1-1.1-2.9-.8-4.9-2.6-6-5.3-1-2.5-1.5-6.2-1.5-11.3v-63.3h33.6v-20.5h-33.6V18.5h-.1Z"/>
  <path d="M973.9,9.1c-8.1,0-14.7,6.6-14.7,14.7v.6c0,8.1,6.6,14.7,14.7,14.7s14.7-6.6,14.7-14.7v-.6c0-8.1-6.6-14.7-14.7-14.7Z"/>
  <path d="M1169.1,9.1c-8.1,0-14.7,6.6-14.7,14.7v.6c0,8.1,6.6,14.7,14.7,14.7s14.7-6.6,14.7-14.7v-.6c0-8.1-6.6-14.7-14.7-14.7Z"/>
  <path d="M1088.1,48.1c-8.9,0-16.9,2-23.7,5.9-6.9,3.9-12.4,9.3-16.4,16.1l-3.7,6.2v-25.2h-23.8v121.2h23.8v-62.6c0-13.2,3.4-23.6,10.1-30.9,6.8-7.3,15.4-11,25.7-11s18.2,3.3,23.4,9.7c5.1,6.3,7.6,15.7,7.6,27.9v66.9h23.8v-69.7c0-18.1-4.2-31.9-12.4-40.9-8.2-9-19.7-13.6-34.4-13.6h0Z"/>
  <path d="M990.9,72.3c-.2-14.1-11.8-21.2-34.5-21.2s-1.9,0-2.6,0v19.7c2.9,0,5.4.5,7.2,1.3,2.4,1,4,3.3,4.9,6.8.7,2.6,1.1,6.4,1.2,11.6v81.9h23.8v-100h0Z"/>
  <path d="M1153.2,51h-2.6v19.7c2.9,0,5.4.5,7.2,1.3,2.4,1,4,3.3,4.9,6.8.7,2.6,1.1,6.4,1.2,11.6v81.9h23.8v-100.1c-.2-14.1-11.8-21.2-34.5-21.2h0Z"/>
</svg>