<?xml version="1.0" encoding="UTF-8"?>
<svg id="Layer_1" xmlns="http://www.w3.org/2000/svg" version="1.1" viewBox="0 0 333.1 221.9">
  <!-- Generator: Adobe Illustrator 29.4.0, SVG Export Plug-In . SVG Version: 2.1.0 Build 152)  -->
  <path d="M154.9,70.9c-19.9-22.5-39.4-44.8-57.3-66.6C94.7,1.4,90.8-.1,86.7,0c-16.7.6-33.5,1.3-50.2,2.2-15.7.9-30.5,14.6-32.2,30.3-5.7,52.1-5.7,104.2,0,156.2,1.8,15.7,16.6,29.4,32.2,30.3,22.4,1.2,44.7,2.1,67.1,2.7,4,.1,7.7-1.4,10.6-4,13.5-12.7,32-24.3,52.4-24.3,20.4,0,38.9,11.6,52.4,24.3,2.9,2.7,6.6,4.1,10.6,4,22.4-.6,44.7-1.5,67.1-2.7,15.7-.9,30.5-14.6,32.2-30.3,5.7-52.1,5.7-104.2,0-156.2-1.8-15.7-16.6-29.4-32.2-30.3-16.7-.9-33.5-1.7-50.2-2.2-4.2-.1-8,1.4-10.9,4.3-17.9,21.8-37.4,44.1-57.3,66.6-6.5,6.3-16.8,6.3-23.3,0Z"/>
</svg>